HIERARCHY
ROOT Hips
{
	OFFSET 0.000000 0.000000 0.000000
	CHANNELS 6 Xposition Yposition Zposition Xrotation Yrotation Zrotation
	JOINT LeftUpLeg_virtual
	{
		OFFSET 0.000000 0.000000 0.000000
		CHANNELS 3 Xrotation Yrotation Zrotation
		JOINT LeftUpLeg
		{
			OFFSET 10.205400 -3.823500 0.155100
			CHANNELS 3 Xrotation Yrotation Zrotation
			JOINT LeftLeg
			{
				OFFSET 0.708757 -12.982077 0.567790
				CHANNELS 3 Xrotation Yrotation Zrotation
				JOINT LeftFoot
				{
					OFFSET -0.708756 -10.717838 -2.184338
					CHANNELS 3 Xrotation Yrotation Zrotation
					JOINT LeftToeBase
					{
						OFFSET 0.108149 -7.191104 7.560241
						CHANNELS 3 Xrotation Yrotation Zrotation
						JOINT LeftToe_End
						{
							OFFSET 0.070230 0.081724 4.490308
							CHANNELS 3 Xrotation Yrotation Zrotation
							End Site
							{
								OFFSET 0 0 0
							}
						}
					}
				}
			}
		}
	}
	JOINT RightUpLeg_virtual
	{
		OFFSET 0.000000 0.000000 0.000000
		CHANNELS 3 Xrotation Yrotation Zrotation
		JOINT RightUpLeg
		{
			OFFSET -10.205400 -3.823500 0.005500
			CHANNELS 3 Xrotation Yrotation Zrotation
			JOINT RightLeg
			{
				OFFSET -0.708756 -12.982134 0.610632
				CHANNELS 3 Xrotation Yrotation Zrotation
				JOINT RightFoot
				{
					OFFSET 0.708754 -10.717769 -1.945823
					CHANNELS 3 Xrotation Yrotation Zrotation
					JOINT RightToeBase
					{
						OFFSET -0.108140 -7.191069 7.372968
						CHANNELS 3 Xrotation Yrotation Zrotation
						JOINT RightToe_End
						{
							OFFSET -0.070227 0.081735 4.479403
							CHANNELS 3 Xrotation Yrotation Zrotation
							End Site
							{
								OFFSET 0 0 0
							}
						}
					}
				}
			}
		}
	}
	JOINT Spine_virtual
	{
		OFFSET 0.000000 0.000000 0.000000
		CHANNELS 3 Xrotation Yrotation Zrotation
		JOINT Spine
		{
			OFFSET 0.000000 6.876099 0.125700
			CHANNELS 3 Xrotation Yrotation Zrotation
			JOINT Spine1
			{
				OFFSET 0.000000 5.730043 0.104720
				CHANNELS 3 Xrotation Yrotation Zrotation
				JOINT Spine1_split
				{
					OFFSET 0.000000 5.730043 0.104720
					CHANNELS 3 Xrotation Yrotation Zrotation
					JOINT Spine2
					{
						OFFSET 0.000000 5.730043 0.104720
						CHANNELS 3 Xrotation Yrotation Zrotation
						JOINT Neck_virtual
						{
							OFFSET 0.000000 0.000000 0.000000
							CHANNELS 3 Xrotation Yrotation Zrotation
							JOINT Neck
							{
								OFFSET 0.000000 10.314075 0.188496
								CHANNELS 3 Xrotation Yrotation Zrotation
								JOINT Head
								{
									OFFSET 0.000000 7.643700 -2.377400
									CHANNELS 3 Xrotation Yrotation Zrotation
									JOINT HeadTop_End
									{
										OFFSET 0.000000 43.788605 -13.619600
										CHANNELS 3 Xrotation Yrotation Zrotation
										End Site
										{
											OFFSET 0 0 0
										}
									}
								}
							}
						}
						JOINT LeftShoulder_virtual
						{
							OFFSET 0.000000 0.000000 0.000000
							CHANNELS 3 Xrotation Yrotation Zrotation
							JOINT LeftShoulder
							{
								OFFSET 2.196100 4.412489 0.087492
								CHANNELS 3 Xrotation Yrotation Zrotation
								JOINT LeftShoulder_split
								{
									OFFSET 2.196100 4.412489 0.087492
									CHANNELS 3 Xrotation Yrotation Zrotation
									JOINT LeftArm
									{
										OFFSET 8.771219 -2.981674 -0.026999
										CHANNELS 3 Xrotation Yrotation Zrotation
										JOINT LeftForeArm
										{
											OFFSET 8.512804 0.000000 -0.000000
											CHANNELS 3 Xrotation Yrotation Zrotation
											JOINT LeftHand
											{
												OFFSET 18.484802 0.000000 -0.000000
												CHANNELS 3 Xrotation Yrotation Zrotation
												End Site
												{
													OFFSET 0 0 0
												}
											}
										}
									}
								}
							}
						}
						JOINT RightShoulder_virtual
						{
							OFFSET 0.000000 0.000000 0.000000
							CHANNELS 3 Xrotation Yrotation Zrotation
							JOINT RightShoulder
							{
								OFFSET -2.196100 4.412496 0.070690
								CHANNELS 3 Xrotation Yrotation Zrotation
								JOINT RightShoulder_split
								{
									OFFSET -2.196100 4.412496 0.070690
									CHANNELS 3 Xrotation Yrotation Zrotation
									JOINT RightArm
									{
										OFFSET -8.771282 -2.981682 -0.094208
										CHANNELS 3 Xrotation Yrotation Zrotation
										JOINT RightForeArm
										{
											OFFSET -8.494598 0.000000 0.000000
											CHANNELS 3 Xrotation Yrotation Zrotation
											JOINT RightHand
											{
												OFFSET -18.483803 0.000000 0.000001
												CHANNELS 3 Xrotation Yrotation Zrotation
												End Site
												{
													OFFSET 0 0 0
												}
											}
										}
									}
								}
							}
						}
					}
				}
			}
		}
	}
}
MOTION
Frames: 11
Frame Time: 0.03333333
1.689217 28.373571 -3.058260 0.000000 0.000000 0.000000 6.200604 -46.482989 8.333910 -34.056618 4.818973 23.332379 49.381957 -14.954609 3.487859 -13.275441 -6.213651 -14.665632 -2.357212 -1.356266 -2.396754 0.000000 0.000000 0.000000 5.020834 -48.596806 8.682484 -11.154061 -8.338899 -32.932153 49.202709 10.215839 -3.287330 -27.109455 -33.388389 59.443164 4.212629 16.257011 -31.435546 0.000000 0.000000 0.000000 4.483867 -40.104753 5.224402 4.679876 11.309634 4.809464 1.799053 1.613333 -2.879877 0.418313 -1.358848 -0.043899 0.000000 0.000000 0.000000 2.456877 3.074235 -1.093013 8.390618 8.555964 3.569123 -38.886671 -77.892611 -51.348331 0.000000 0.000000 0.000000 -0.662360 0.470187 -3.966102 4.157499 -12.350173 9.504663 1.823779 5.795155 -7.283659 -49.413048 26.470364 -43.345152 178.724085 -47.854614 176.588066 0.000000 0.000000 0.000000 1.486670 1.696191 0.138356 5.235445 7.176651 -8.681215 -18.898152 -1.774260 13.131345 -33.561644 36.873254 75.668346 -125.384078 58.217479 124.529580 0.000000 0.000000 0.000000 
1.679861 28.498466 -3.000633 0.000000 0.000000 0.000000 5.997854 -46.890055 9.007575 -33.765354 5.842328 22.600094 47.584091 -15.508329 3.233677 -12.278097 -6.071152 -14.475406 -2.705147 -1.427610 -1.698852 0.000000 0.000000 0.000000 4.640845 -49.587894 9.095310 -10.526577 -8.190520 -33.457852 50.285161 9.729376 -3.212769 -27.756209 -33.656966 58.175310 5.095780 15.954612 -31.529512 0.000000 0.000000 0.000000 3.394926 -41.509228 5.623836 4.160693 11.258956 5.187721 2.109009 1.774027 -2.894507 0.187355 -1.097833 0.062248 0.000000 0.000000 0.000000 2.624660 3.227114 -1.117102 8.299775 7.986117 4.702798 -39.491273 -77.105432 -50.781384 0.000000 0.000000 0.000000 -0.101644 0.567345 -4.047777 4.330796 -12.371095 9.282435 2.289815 5.047802 -9.941704 -46.779112 25.788793 -47.754876 177.614070 -51.214104 175.376322 0.000000 0.000000 0.000000 1.887742 1.906782 -0.018868 5.132482 8.405206 -7.098851 -18.880788 -3.042912 9.162902 -33.551658 37.591384 73.154092 -124.521370 58.594854 123.964136 0.000000 0.000000 0.000000 
1.759127 28.732096 -2.916080 0.000000 0.000000 0.000000 5.765154 -48.661334 10.606166 -31.622167 8.562843 20.487479 43.890843 -15.562193 3.025371 -11.620436 -5.035193 -14.296242 -3.620673 -1.537959 -1.045532 0.000000 0.000000 0.000000 4.864524 -50.956473 10.534923 -9.560607 -6.558157 -34.191056 50.674820 8.831233 -3.320715 -29.128749 -33.420488 55.490226 5.491432 15.845373 -30.971804 0.000000 0.000000 0.000000 2.146156 -42.766789 6.719097 3.804285 11.036837 5.564326 2.650475 1.918528 -2.984331 0.177928 -0.807140 0.105716 0.000000 0.000000 0.000000 2.910403 3.345968 -1.209008 6.089508 6.963375 6.109428 -43.662766 -76.378249 -52.268743 0.000000 0.000000 0.000000 0.441336 0.734979 -4.183683 4.306219 -12.033309 8.681958 0.595992 3.965101 -10.770065 -40.891028 23.638296 -54.289403 174.945173 -56.520891 172.844371 0.000000 0.000000 0.000000 2.415274 2.103869 -0.323955 5.163098 9.689126 -5.136216 -17.766470 -2.994064 5.969324 -33.930126 37.480766 70.162278 -121.295963 61.228309 120.517718 0.000000 0.000000 0.000000 
1.897151 28.985384 -2.866945 0.000000 0.000000 0.000000 5.978188 -51.735094 13.005219 -28.008167 12.602809 17.390640 39.712905 -15.078616 2.990367 -11.746082 -2.807445 -14.265174 -3.223311 -1.591426 -1.285933 0.000000 0.000000 0.000000 5.695353 -53.098270 12.843030 -9.364882 -3.351520 -35.219908 50.547491 7.810258 -3.415780 -29.742376 -32.115973 52.472840 4.757875 15.983220 -29.910737 0.000000 0.000000 0.000000 1.064195 -44.248971 8.287933 3.985698 10.414510 5.938903 3.487679 1.913041 -2.973265 0.297328 -0.633223 0.100905 0.000000 0.000000 0.000000 3.402974 3.354495 -1.138802 2.097769 5.841961 7.355678 -49.402195 -75.380911 -54.327956 0.000000 0.000000 0.000000 1.029027 0.854732 -4.162338 4.126175 -11.121593 8.013006 -1.322743 3.869677 -9.982313 -32.812215 20.249554 -60.537223 170.801926 -62.608608 169.226338 0.000000 0.000000 0.000000 3.211959 2.135873 -0.609500 5.303215 11.022444 -3.111574 -16.150115 -2.201797 4.120368 -35.615058 38.100933 68.402364 -115.586294 65.479815 113.959186 0.000000 0.000000 0.000000 
2.108934 29.226482 -2.913229 0.000000 0.000000 0.000000 7.028963 -55.936541 15.991209 -23.811347 17.146365 14.079648 36.058283 -14.122043 3.084934 -12.395458 0.553063 -14.832330 -1.193186 -1.597200 -2.495766 0.000000 0.000000 0.000000 7.570383 -56.684375 15.965502 -10.873232 1.398839 -36.244433 49.937535 7.153860 -3.311435 -28.195419 -29.113968 50.830346 3.097867 16.196675 -28.781181 0.000000 0.000000 0.000000 0.670225 -46.351897 10.154836 4.897468 9.231351 6.341771 4.676067 1.601816 -2.618418 0.280671 -0.589416 0.068394 0.000000 0.000000 0.000000 4.179650 3.155925 -0.744246 -2.982026 4.778446 8.014997 -55.057445 -74.131786 -55.859254 0.000000 0.000000 0.000000 1.915611 0.811031 -3.770007 3.873454 -9.602192 7.709420 -2.514488 4.784043 -8.044626 -23.106340 16.116972 -65.208048 165.574290 -68.196522 164.868964 0.000000 0.000000 0.000000 4.320306 1.907709 -0.574392 5.510600 12.462786 -1.368014 -14.731338 -1.620353 3.810013 -39.691373 41.013835 69.223598 -107.106355 70.142525 103.989883 0.000000 0.000000 0.000000 
2.348271 29.463440 -3.049547 0.000000 0.000000 0.000000 9.070035 -60.904148 19.294367 -19.312191 21.231657 11.261564 33.182907 -13.163736 3.239936 -13.036667 4.588582 -16.392218 0.104593 -1.642476 -3.656887 0.000000 0.000000 0.000000 10.459042 -61.413619 19.661852 -14.553359 7.297031 -36.391436 49.082525 6.983532 -2.881367 -24.952969 -24.340627 50.379619 2.006244 16.089574 -27.974747 0.000000 0.000000 0.000000 1.408730 -49.275744 12.087150 6.720726 7.416511 6.763766 6.205723 1.000893 -1.858901 0.167537 -0.629474 0.105360 0.000000 0.000000 0.000000 5.354121 2.777444 0.008896 -8.099156 4.032940 7.638668 -58.606008 -72.551424 -55.449566 0.000000 0.000000 0.000000 3.473368 0.556171 -2.926692 3.597442 -7.398764 8.075143 -3.132560 6.151773 -5.436867 -12.473659 11.358715 -67.859282 159.575103 -72.720648 159.887161 0.000000 0.000000 0.000000 5.883207 1.475194 -0.070112 5.784820 13.920480 -0.122534 -12.748588 -0.920990 5.155924 -47.626007 46.320000 74.530512 -96.497322 73.871522 91.446766 0.000000 0.000000 0.000000 
2.566821 29.697029 -3.380590 0.000000 0.000000 0.000000 12.278903 -65.826228 22.858526 -14.917920 24.460958 9.325711 31.097636 -12.151569 3.259932 -13.976298 9.068340 -18.219454 -0.306081 -1.764284 -4.267436 0.000000 0.000000 0.000000 14.590763 -66.105904 23.824033 -20.005803 13.310995 -34.867474 48.070479 6.926237 -2.021758 -21.574503 -18.334526 49.415882 2.891830 15.404093 -27.737250 0.000000 0.000000 0.000000 3.640992 -53.344150 14.198868 9.364350 5.136814 7.224601 8.139346 0.298106 -0.773679 -0.003563 -0.534520 0.172498 0.000000 0.000000 0.000000 6.917353 2.341729 1.040007 -12.317065 3.794822 6.473625 -59.404259 -70.692554 -52.778829 0.000000 0.000000 0.000000 5.858675 0.176958 -1.740759 3.295531 -4.750817 8.942490 -3.635001 6.725976 -3.292742 -1.691826 5.660317 -69.033869 151.870622 -76.073964 153.038762 0.000000 0.000000 0.000000 7.947928 0.994012 0.781852 6.120545 15.248163 0.796472 -10.243787 0.466363 7.181958 -60.384910 52.405992 85.453214 -86.752944 76.024274 79.686137 0.000000 0.000000 0.000000 
2.745347 29.883190 -3.817318 0.000000 0.000000 0.000000 16.247999 -70.053890 26.451219 -10.567897 26.708143 8.265002 29.596371 -10.905442 3.008251 -16.004661 13.733265 -19.264673 -1.381842 -2.015187 -4.547230 0.000000 0.000000 0.000000 19.893660 -70.177407 28.522534 -26.596171 18.519763 -31.211215 46.621147 6.574070 -0.746209 -19.234786 -11.782425 47.026897 5.979732 14.213502 -27.928551 0.000000 0.000000 0.000000 7.412473 -58.020387 16.749818 12.641874 2.582926 7.558608 10.429093 -0.282919 0.386046 -0.142471 -0.381147 0.152598 0.000000 0.000000 0.000000 8.950223 1.996012 2.099187 -14.882880 3.874451 4.932520 -57.354553 -68.750137 -47.913138 0.000000 0.000000 0.000000 8.917104 -0.177589 -0.470524 2.914113 -2.117920 10.206321 -4.092828 6.851846 -1.895653 8.030761 -1.473739 -69.639024 139.579219 -78.267582 141.139452 0.000000 0.000000 0.000000 10.515213 0.684436 1.765668 6.512269 16.400425 1.597411 -7.391923 1.327649 7.876737 -76.985979 55.893965 100.615851 -82.934629 76.619525 74.070738 0.000000 0.000000 0.000000 
2.917220 29.997381 -4.295919 0.000000 0.000000 0.000000 20.591320 -73.299582 29.877027 -6.305809 28.058361 7.829075 28.528773 -9.857901 2.497330 -19.148208 18.257137 -19.803403 -1.767715 -2.408048 -4.796923 0.000000 0.000000 0.000000 25.811985 -73.501783 33.525844 -33.568573 22.189951 -25.975619 44.636328 5.951230 0.713353 -17.727406 -5.216580 43.613473 9.696603 12.953989 -28.097534 0.000000 0.000000 0.000000 12.422971 -62.777846 20.178076 16.274162 -0.073835 7.489635 12.851745 -0.567257 1.336789 -0.176268 -0.147277 0.130982 0.000000 0.000000 0.000000 11.242626 1.845815 2.899473 -15.524371 3.941089 3.657536 -52.873485 -66.827076 -41.224853 0.000000 0.000000 0.000000 12.225662 -0.413923 0.568225 2.439246 0.177088 11.702248 -3.975514 6.408256 -1.126604 15.139743 -9.428258 -70.078779 119.202415 -79.190634 120.412301 0.000000 0.000000 0.000000 13.392923 0.637427 2.577337 6.949664 17.164595 2.369938 -4.584571 1.109144 7.296534 -90.604515 55.699093 112.674202 -85.915734 76.048460 75.663012 0.000000 0.000000 0.000000 
3.096502 30.060619 -4.681076 0.000000 0.000000 0.000000 25.893601 -75.694841 34.009045 -2.633490 28.839429 7.723363 27.817762 -9.298504 1.733778 -22.787024 22.351193 -20.492067 -0.873966 -2.910456 -5.123430 0.000000 0.000000 0.000000 32.904231 -76.173043 39.645915 -39.887475 24.193754 -20.253300 42.355113 5.084328 2.068304 -15.999057 0.793456 40.275030 11.852924 12.076095 -27.890043 0.000000 0.000000 0.000000 18.444921 -66.975612 24.847786 19.703135 -2.633942 6.790981 15.143335 -0.532331 1.897920 -0.159312 0.124128 0.070933 0.000000 0.000000 0.000000 13.444527 1.892336 3.219304 -14.426956 3.540953 3.239861 -47.112152 -64.818304 -33.567719 0.000000 0.000000 0.000000 15.351736 -0.472183 1.194485 1.938355 1.815162 13.251878 -3.791608 5.596073 -1.210161 19.230785 -16.572885 -70.728269 94.130587 -78.102721 94.364043 0.000000 0.000000 0.000000 16.122477 0.840819 3.039607 7.264603 17.279578 3.205028 -2.098148 0.023885 6.669101 -95.985393 53.893662 116.129089 -92.222778 74.689246 81.026432 0.000000 0.000000 0.000000 
3.252255 30.082998 -4.911224 0.000000 0.000000 0.000000 31.616082 -77.475806 38.788511 0.179656 29.476764 7.808762 27.325890 -9.517928 0.735800 -25.732458 25.564829 -21.956931 0.033392 -3.405937 -5.072773 0.000000 0.000000 0.000000 40.717063 -78.043647 46.758625 -44.826180 25.014909 -15.012896 40.399148 4.253241 2.977178 -13.873009 5.649405 37.669323 11.744781 11.633900 -27.013794 0.000000 0.000000 0.000000 24.677738 -70.336209 30.222248 22.549045 -4.970677 5.423136 16.985825 -0.248358 2.007085 -0.091213 0.438260 0.071353 0.000000 0.000000 0.000000 15.273951 2.075225 3.006821 -12.115452 2.651697 3.813260 -40.855897 -62.584238 -25.443867 0.000000 0.000000 0.000000 17.893668 -0.418012 1.403650 1.449301 2.754497 14.692184 -3.695496 4.008377 -1.729067 20.555118 -20.880307 -71.560008 72.693082 -74.922558 71.524375 0.000000 0.000000 0.000000 18.433533 1.161328 3.159806 7.373356 16.629033 3.990608 0.564024 -0.929494 6.696272 -92.526237 51.781211 110.236104 -99.134247 73.128793 87.449617 0.000000 0.000000 0.000000 
